<?xml version="1.0" encoding="iso-8859-1"?>
<!-- Uploaded to: SVG Repo, www.svgrepo.com, Generator: SVG Repo Mixer Tools -->
<svg fill="#000000" height="800px" width="800px" version="1.1" id="Layer_1" xmlns="http://www.w3.org/2000/svg" xmlns:xlink="http://www.w3.org/1999/xlink" 
	 viewBox="0 0 511.933 511.933" xml:space="preserve">
<g>
	<g>
		<g>
			<path d="M174.793,227.877c1.161,0.538,2.381,0.794,3.584,0.794c1.442,0,2.816-0.444,4.062-1.126
				c4.173,1.818,8.755,2.859,13.585,2.859c2.569,0,5.052-0.341,7.458-0.879c0.162-0.026,0.324-0.017,0.495-0.06
				c1.195-0.282,2.347-0.768,3.516-1.186c0.683-0.247,1.391-0.41,2.048-0.691c0.128-0.06,0.265-0.077,0.393-0.136
				c0.188-0.085,0.299-0.239,0.469-0.333c7.134-3.337,12.868-9.045,16.29-16.128c0.162-0.282,0.375-0.503,0.512-0.802
				c0.051-0.128,0.068-0.256,0.128-0.375c0.299-0.691,0.469-1.434,0.725-2.142c0.401-1.143,0.879-2.253,1.161-3.422
				c0.026-0.12-0.009-0.239,0.008-0.358c0.572-2.458,0.93-4.992,0.93-7.62c0-4.83-1.033-9.404-2.842-13.568
				c1.254-2.304,1.502-5.111,0.316-7.671c-1.715-3.686-5.709-5.41-9.523-4.582c-5.973-5.112-13.628-8.311-22.084-8.311
				c-18.825,0-34.133,15.309-34.133,34.133c0,8.457,3.208,16.111,8.32,22.076C169.383,222.159,171.107,226.153,174.793,227.877z"/>
			<path d="M392.293,384c0-7.185-2.253-13.841-6.059-19.345c1.067-3.183,0.205-6.827-2.483-9.165
				c-2.628-2.287-6.229-2.637-9.208-1.246c-4.89-2.705-10.419-4.378-16.384-4.378c-12.237,0-22.895,6.519-28.928,16.213
				c-0.12,0.171-0.299,0.273-0.41,0.452c-0.495,0.836-0.845,1.766-1.271,2.645c-0.341,0.708-0.717,1.382-1.016,2.108
				c-0.094,0.23-0.239,0.444-0.324,0.683c-0.102,0.256-0.06,0.529-0.128,0.785c-1.246,3.541-2.057,7.287-2.057,11.247
				c0,3.345,0.631,6.519,1.536,9.574c-1.971,2.594-2.398,6.17-0.751,9.224c1.536,2.85,4.48,4.48,7.518,4.48
				c0.299,0,0.606-0.085,0.913-0.111c6.229,6.699,15.053,10.965,24.917,10.965C376.984,418.133,392.293,402.825,392.293,384z"/>
			<path d="M332.56,34.133c0,6.076,1.724,11.699,4.514,16.648c0.137,0.282,0.145,0.589,0.307,0.87
				c0.188,0.307,0.444,0.555,0.64,0.862c0.495,0.768,1.058,1.468,1.613,2.193c0.538,0.708,0.998,1.493,1.587,2.15
				c0.136,0.154,0.333,0.205,0.478,0.35c5.419,5.862,12.826,9.728,21.171,10.675c0.324,0.06,0.606,0.239,0.939,0.265
				c0.939,0.077,1.911,0.119,2.884,0.119c1.169,0,2.313-0.068,3.456-0.179c0.316-0.026,0.572-0.196,0.87-0.256
				c7.799-1.007,14.797-4.506,20.036-9.856c3.098,0.384,6.357-0.887,8.209-3.703c2.022-3.038,1.775-6.878-0.247-9.677
				c1.075-3.319,1.809-6.793,1.809-10.462C400.827,15.309,385.518,0,366.693,0c-11.494,0-21.623,5.743-27.81,14.473
				c-3.465,0.051-6.682,2.167-7.902,5.615c-1.143,3.234-0.205,6.673,2.099,8.926C332.824,30.694,332.56,32.384,332.56,34.133z"/>
			<path d="M255.76,221.867c-18.825,0-34.133,15.309-34.133,34.133c0,18.825,15.309,34.133,34.133,34.133
				c18.825,0,34.133-15.309,34.133-34.133C289.893,237.175,274.584,221.867,255.76,221.867z"/>
			<path d="M170.818,267.842c4.71-0.179,8.38-4.139,8.201-8.849c-0.034-0.99-0.06-1.997-0.06-2.995c0-1.425,0.034-2.842,0.119-4.25
				c0.273-4.71-3.319-8.738-8.03-9.011c-4.574-0.29-8.738,3.302-9.003,8.021c-0.102,1.732-0.154,3.482-0.154,5.239
				c0,1.22,0.026,2.432,0.077,3.644c0.171,4.599,3.959,8.209,8.516,8.209C170.596,267.85,170.707,267.85,170.818,267.842z"/>
			<path d="M174.26,282.775c-4.309,1.92-6.238,6.963-4.318,11.264c1.212,2.722,2.534,5.35,3.985,7.919
				c1.57,2.782,4.454,4.343,7.441,4.343c1.417,0,2.859-0.35,4.181-1.101c4.113-2.321,5.564-7.526,3.243-11.622
				c-1.186-2.099-2.27-4.267-3.268-6.485C183.612,282.792,178.561,280.838,174.26,282.775z"/>
			<path d="M324.517,307.196c-3.482-3.174-8.892-2.944-12.058,0.555c-1.621,1.783-3.345,3.499-5.137,5.129
				c-3.49,3.166-3.746,8.559-0.58,12.049c1.681,1.852,4.002,2.799,6.315,2.799c2.057,0,4.105-0.734,5.734-2.219
				c2.193-1.988,4.292-4.07,6.289-6.255C328.255,315.763,327.999,310.37,324.517,307.196z"/>
			<path d="M293.677,332.908c-1.655-4.412-6.579-6.639-10.991-4.975c-2.253,0.845-4.548,1.587-6.895,2.227
				c-4.548,1.229-7.228,5.922-5.999,10.462c1.033,3.806,4.48,6.306,8.226,6.306c0.742,0,1.502-0.094,2.244-0.307
				c2.876-0.768,5.692-1.681,8.439-2.722C293.114,342.244,295.341,337.32,293.677,332.908z"/>
			<path d="M215.627,331.784c2.62-3.925,1.562-9.216-2.355-11.844c-2.022-1.34-3.968-2.782-5.854-4.309
				c-3.652-2.97-9.037-2.415-11.998,1.254c-2.97,3.661-2.415,9.028,1.246,11.998c2.287,1.86,4.668,3.618,7.117,5.256
				c1.459,0.973,3.115,1.434,4.736,1.434C211.275,335.573,213.98,334.241,215.627,331.784z"/>
			<path d="M315.551,207.85c1.519,1.886,2.961,3.84,4.292,5.862c1.638,2.483,4.361,3.823,7.125,3.823
				c1.613,0,3.251-0.461,4.702-1.417c3.934-2.603,5.009-7.893,2.406-11.827c-1.638-2.466-3.379-4.838-5.222-7.142
				c-2.97-3.661-8.329-4.267-12.006-1.297C313.179,198.805,312.599,204.172,315.551,207.85z"/>
			<path d="M287.076,185.875c2.21,0.981,4.369,2.082,6.46,3.268c1.331,0.759,2.782,1.118,4.207,1.118
				c2.978,0,5.862-1.553,7.424-4.318c2.338-4.105,0.896-9.31-3.2-11.631c-2.577-1.468-5.214-2.807-7.927-4.019
				c-4.326-1.911-9.353,0.009-11.273,4.309C280.847,178.903,282.776,183.946,287.076,185.875z"/>
			<path d="M254.527,341.758c0.538-4.685-2.825-8.917-7.501-9.446c-2.423-0.29-4.821-0.683-7.177-1.169
				c-4.608-0.973-9.131,1.98-10.103,6.588c-0.981,4.608,1.971,9.139,6.588,10.112c2.867,0.606,5.786,1.084,8.747,1.417
				c0.333,0.043,0.657,0.06,0.981,0.06C250.346,349.319,254.032,346.11,254.527,341.758z"/>
			<path d="M329.863,276.264c-0.657,2.347-1.399,4.642-2.253,6.895c-1.672,4.412,0.538,9.335,4.941,11.008
				c0.998,0.384,2.022,0.555,3.029,0.555c3.447,0,6.69-2.091,7.979-5.495c1.05-2.748,1.971-5.564,2.748-8.422
				c1.254-4.548-1.417-9.242-5.956-10.496C335.845,269.079,331.109,271.716,329.863,276.264z"/>
			<path d="M251.277,179.317c0.154,0,0.29,0,0.444-0.009c2.398-0.128,4.821-0.145,7.262-0.043c4.608,0.393,8.687-3.456,8.883-8.166
				c0.205-4.71-3.456-8.678-8.166-8.883c-2.944-0.128-5.922-0.111-8.849,0.043c-4.71,0.239-8.32,4.25-8.09,8.96
				C242.991,175.776,246.762,179.317,251.277,179.317z"/>
			<path d="M349.06,245.617c-0.333-2.953-0.802-5.862-1.382-8.721c-0.939-4.617-5.453-7.595-10.069-6.656
				c-4.617,0.947-7.595,5.453-6.647,10.069c0.486,2.355,0.862,4.762,1.135,7.194c0.486,4.361,4.181,7.586,8.474,7.586
				c0.316,0,0.631-0.017,0.947-0.051C346.201,254.517,349.581,250.301,349.06,245.617z"/>
			<path d="M297.235,20.675c2.654,0.461,5.282,0.964,7.91,1.527c0.589,0.119,1.186,0.179,1.775,0.179
				c3.951,0,7.492-2.748,8.337-6.767c0.981-4.608-1.971-9.139-6.579-10.112c-2.807-0.597-5.641-1.135-8.491-1.647
				c-4.625-0.777-9.071,2.295-9.882,6.938C289.496,15.436,292.593,19.856,297.235,20.675z"/>
			<path d="M257.118,17.067c2.697,0.017,5.385,0.077,8.064,0.179h0.341c4.565,0,8.346-3.601,8.516-8.192
				c0.188-4.71-3.482-8.678-8.192-8.866c-2.867-0.111-5.743-0.171-8.627-0.188h-0.051c-4.693,0-8.508,3.78-8.533,8.482
				C248.611,13.193,252.399,17.041,257.118,17.067z"/>
			<path d="M8.193,250.109c0.179,0.009,0.341,0.017,0.521,0.017c4.48,0,8.235-3.49,8.508-8.021c0.162-2.705,0.367-5.393,0.606-8.073
				c0.427-4.693-3.038-8.841-7.731-9.267c-4.659-0.418-8.841,3.046-9.267,7.74c-0.265,2.842-0.478,5.692-0.64,8.576
				C-0.101,245.791,3.483,249.827,8.193,250.109z"/>
			<path d="M12.66,208.633c0.649,0.154,1.289,0.213,1.929,0.213c3.883,0,7.398-2.671,8.303-6.613
				c0.606-2.628,1.246-5.222,1.937-7.817c1.212-4.548-1.485-9.224-6.042-10.445c-4.497-1.22-9.225,1.485-10.445,6.042
				c-0.742,2.782-1.434,5.581-2.082,8.388C5.202,203.001,8.069,207.575,12.66,208.633z"/>
			<path d="M10.735,291.758c4.685-0.529,8.055-4.753,7.535-9.429c-0.299-2.654-0.555-5.325-0.751-7.996
				c-0.35-4.702-4.437-8.192-9.139-7.876c-4.702,0.35-8.226,4.446-7.876,9.139c0.213,2.893,0.478,5.777,0.802,8.627
				c0.486,4.361,4.181,7.586,8.474,7.586C10.095,291.809,10.41,291.792,10.735,291.758z"/>
			<path d="M175.102,30.508c0.922,0,1.86-0.154,2.782-0.469c2.534-0.87,5.094-1.707,7.671-2.5c4.506-1.374,7.049-6.135,5.666-10.65
				c-1.374-4.506-6.127-7.083-10.65-5.666c-2.782,0.845-5.521,1.741-8.252,2.688c-4.463,1.528-6.818,6.391-5.282,10.846
				C168.25,28.29,171.561,30.508,175.102,30.508z"/>
			<path d="M40.344,359.491c-1.169-2.424-2.295-4.864-3.379-7.33c-1.886-4.309-6.921-6.281-11.247-4.378
				c-4.318,1.894-6.272,6.929-4.378,11.238c1.161,2.654,2.372,5.274,3.618,7.868c1.476,3.063,4.531,4.838,7.706,4.838
				c1.237,0,2.5-0.273,3.686-0.845C40.6,368.835,42.383,363.732,40.344,359.491z"/>
			<path d="M26.002,321.825c-0.742-2.569-1.425-5.154-2.074-7.774c-1.143-4.565-5.803-7.33-10.351-6.221
				c-4.565,1.143-7.347,5.777-6.221,10.351c0.7,2.799,1.451,5.598,2.244,8.363c1.075,3.738,4.489,6.17,8.201,6.17
				c0.776,0,1.57-0.102,2.355-0.333C24.687,331.084,27.299,326.357,26.002,321.825z"/>
			<path d="M215.535,20.308c0.452,0,0.896-0.034,1.357-0.111c2.671-0.418,5.333-0.811,8.021-1.152
				c4.668-0.614,7.962-4.898,7.364-9.574c-0.606-4.668-4.873-7.902-9.566-7.364c-2.85,0.375-5.683,0.785-8.516,1.246
				c-4.659,0.751-7.825,5.12-7.074,9.771C207.795,17.322,211.422,20.308,215.535,20.308z"/>
			<path d="M102.185,70.467c1.843,0,3.712-0.597,5.265-1.826c2.125-1.673,4.267-3.319,6.443-4.924
				c3.789-2.799,4.591-8.141,1.783-11.93c-2.799-3.797-8.132-4.608-11.93-1.784c-2.313,1.707-4.582,3.448-6.844,5.222
				c-3.712,2.918-4.344,8.286-1.434,11.981C97.15,69.349,99.659,70.467,102.185,70.467z"/>
			<path d="M136.951,47.409c1.391,0,2.799-0.341,4.096-1.058c2.364-1.289,4.736-2.543,7.142-3.755
				c4.207-2.125,5.896-7.262,3.772-11.469c-2.125-4.198-7.27-5.922-11.469-3.772c-2.577,1.306-5.137,2.654-7.654,4.045
				c-4.139,2.27-5.649,7.45-3.371,11.58C131.021,45.813,133.93,47.409,136.951,47.409z"/>
			<path d="M24.068,168.509c1.075,0.444,2.185,0.648,3.277,0.648c3.337,0,6.511-1.971,7.885-5.257
				c1.024-2.466,2.099-4.907,3.208-7.33c1.971-4.284,0.094-9.353-4.19-11.324c-4.309-1.98-9.353-0.094-11.315,4.19
				c-1.203,2.603-2.364,5.248-3.473,7.91C17.651,161.699,19.716,166.7,24.068,168.509z"/>
			<path d="M56.251,387.525c-2.594-3.925-7.868-5.018-11.827-2.423c-3.934,2.603-5.018,7.893-2.423,11.827
				c1.596,2.406,3.226,4.787,4.898,7.142c1.673,2.338,4.292,3.575,6.963,3.575c1.715,0,3.439-0.512,4.949-1.579
				c3.831-2.739,4.727-8.064,1.988-11.913C59.247,391.98,57.728,389.769,56.251,387.525z"/>
			<path d="M42.018,130.9c1.417,0.896,3.004,1.323,4.565,1.323c2.825,0,5.581-1.399,7.219-3.959c1.434-2.261,2.91-4.514,4.412-6.724
				c2.671-3.891,1.673-9.199-2.219-11.853c-3.891-2.671-9.207-1.673-11.861,2.219c-1.621,2.381-3.2,4.779-4.753,7.211
				C36.864,123.1,38.041,128.365,42.018,130.9z"/>
			<path d="M78.143,96.183c1.792-1.997,3.618-3.959,5.487-5.888c3.26-3.396,3.166-8.806-0.239-12.066
				c-3.371-3.251-8.789-3.174-12.066,0.23c-1.997,2.082-3.977,4.19-5.897,6.34c-3.14,3.507-2.842,8.909,0.666,12.049
				c1.621,1.459,3.661,2.176,5.692,2.176C74.124,99.025,76.462,98.069,78.143,96.183z"/>
			<path d="M415.56,433.642c-1.988,1.801-4.019,3.558-6.076,5.282c-3.61,3.038-4.07,8.405-1.041,12.023
				c1.681,2.014,4.096,3.046,6.545,3.046c1.929,0,3.883-0.657,5.478-2.005c2.21-1.852,4.386-3.746,6.528-5.683
				c3.499-3.157,3.772-8.559,0.614-12.049C424.452,430.749,419.033,430.484,415.56,433.642z"/>
			<path d="M383.501,457.967c-2.287,1.442-4.582,2.842-6.912,4.207c-4.062,2.389-5.41,7.629-3.029,11.682
				c1.587,2.714,4.437,4.207,7.364,4.207c1.468,0,2.961-0.367,4.318-1.169c2.492-1.468,4.941-2.97,7.373-4.514
				c3.985-2.509,5.18-7.782,2.654-11.759C392.76,456.627,387.478,455.441,383.501,457.967z"/>
			<path d="M455.107,402.892c-3.695-2.935-9.054-2.295-11.981,1.399c-1.664,2.108-3.371,4.173-5.103,6.221
				c-3.046,3.576-2.611,8.969,0.981,12.023c1.596,1.365,3.567,2.031,5.521,2.031c2.406,0,4.821-1.016,6.502-3.012
				c1.869-2.185,3.695-4.42,5.478-6.682C459.434,411.178,458.811,405.81,455.107,402.892z"/>
			<path d="M424.91,63.925c-3.541-3.106-8.926-2.773-12.049,0.768c-3.106,3.541-2.765,8.934,0.768,12.049
				c2.022,1.775,4.002,3.584,5.965,5.427c1.647,1.553,3.746,2.321,5.845,2.321c2.27,0,4.54-0.896,6.212-2.679
				c3.234-3.43,3.072-8.823-0.358-12.058C429.202,67.773,427.069,65.836,424.91,63.925z"/>
			<path d="M347.768,476.575c-2.483,1.033-4.992,2.031-7.526,2.995c-4.403,1.673-6.622,6.596-4.958,11.008
				c1.297,3.405,4.54,5.504,7.987,5.504c1.007,0,2.022-0.171,3.021-0.546c2.705-1.024,5.376-2.091,8.03-3.191
				c4.343-1.809,6.417-6.81,4.608-11.162C357.112,476.822,352.111,474.791,347.768,476.575z"/>
			<path d="M498.055,204.81c-4.642,0.819-7.748,5.24-6.921,9.882c0.461,2.637,0.879,5.291,1.246,7.962
				c0.597,4.267,4.258,7.356,8.448,7.356c0.384,0,0.785-0.026,1.178-0.085c4.668-0.64,7.927-4.949,7.279-9.626
				c-0.393-2.867-0.845-5.726-1.348-8.576C507.118,207.08,502.689,203.957,498.055,204.81z"/>
			<path d="M501.326,287.925c-4.668-0.777-9.037,2.389-9.796,7.049c-0.435,2.654-0.922,5.299-1.434,7.927
				c-0.93,4.625,2.082,9.114,6.699,10.035c0.563,0.111,1.126,0.162,1.673,0.162c3.994,0,7.552-2.807,8.363-6.861
				c0.563-2.833,1.075-5.666,1.545-8.516C509.134,293.079,505.977,288.693,501.326,287.925z"/>
			<path d="M460.11,101.85c-1.741-2.304-3.516-4.565-5.333-6.801c-2.961-3.669-8.337-4.224-11.998-1.246
				c-3.661,2.961-4.224,8.337-1.254,11.998c1.69,2.082,3.345,4.198,4.966,6.349c1.69,2.219,4.233,3.388,6.818,3.388
				c1.792,0,3.601-0.572,5.146-1.732C462.209,110.955,462.952,105.604,460.11,101.85z"/>
			<path d="M503.227,246.25c-4.719,0-8.533,3.814-8.533,8.533v1.186c-0.009,2.321-0.043,4.634-0.111,6.921
				c-0.128,4.71,3.584,8.644,8.294,8.781h0.247c4.599,0,8.397-3.669,8.525-8.294c0.068-2.441,0.102-4.881,0.111-7.373v-1.22
				C511.76,250.064,507.946,246.25,503.227,246.25z"/>
			<path d="M269.51,494.542c-2.662,0.162-5.342,0.265-8.021,0.324c-4.719,0.119-8.448,4.028-8.337,8.738
				c0.12,4.642,3.908,8.329,8.533,8.329h0.196c2.901-0.077,5.786-0.179,8.661-0.358c4.702-0.282,8.286-4.326,8.004-9.037
				C278.256,497.844,274.203,494.328,269.51,494.542z"/>
			<path d="M476.976,367.4c-4.113-2.278-9.318-0.777-11.588,3.362c-1.297,2.347-2.628,4.676-3.994,6.989
				c-2.406,4.045-1.075,9.284,2.97,11.691c1.374,0.819,2.867,1.203,4.352,1.203c2.91,0,5.751-1.493,7.347-4.181
				c1.459-2.458,2.876-4.958,4.275-7.475C482.608,374.867,481.106,369.679,476.976,367.4z"/>
			<path d="M492.551,328.708c-4.454-1.57-9.327,0.811-10.854,5.257c-0.896,2.56-1.809,5.094-2.773,7.603
				c-1.681,4.395,0.521,9.335,4.915,11.017c1.007,0.384,2.039,0.563,3.055,0.563c3.43,0,6.665-2.082,7.97-5.478
				c1.024-2.68,2.005-5.376,2.944-8.107C499.361,335.108,496.997,330.253,492.551,328.708z"/>
			<path d="M309.401,488.892c-2.611,0.589-5.24,1.152-7.902,1.664c-4.625,0.905-7.637,5.376-6.741,10.01
				c0.794,4.079,4.369,6.904,8.371,6.904c0.538,0,1.092-0.051,1.638-0.162c2.825-0.546,5.641-1.143,8.431-1.783
				c4.591-1.05,7.467-5.623,6.417-10.214C318.575,490.701,313.975,487.808,309.401,488.892z"/>
			<path d="M152.193,471.392c-2.415-1.169-4.813-2.372-7.194-3.618c-4.164-2.202-9.327-0.589-11.511,3.584
				c-2.202,4.164-0.597,9.327,3.584,11.52c2.534,1.34,5.103,2.628,7.689,3.883c1.203,0.572,2.466,0.845,3.703,0.845
				c3.183,0,6.221-1.775,7.697-4.813C158.209,478.543,156.434,473.44,152.193,471.392z"/>
			<path d="M467.993,146.191c1.519,2.935,4.497,4.608,7.586,4.608c1.323,0,2.662-0.307,3.917-0.956
				c4.181-2.167,5.811-7.322,3.644-11.503c-1.323-2.569-2.697-5.103-4.113-7.612c-2.321-4.113-7.518-5.572-11.622-3.243
				c-4.105,2.313-5.564,7.509-3.243,11.622C465.476,141.438,466.747,143.811,467.993,146.191z"/>
			<path d="M480.86,175.725c0.905,2.543,1.766,5.094,2.594,7.663c1.152,3.627,4.506,5.939,8.124,5.939
				c0.853,0,1.732-0.137,2.603-0.41c4.489-1.434,6.963-6.238,5.521-10.726c-0.879-2.739-1.792-5.478-2.756-8.183
				c-1.579-4.446-6.477-6.75-10.906-5.18C481.602,166.407,479.281,171.279,480.86,175.725z"/>
			<path d="M229.293,493.484c-2.671-0.29-5.342-0.632-7.996-1.016c-4.71-0.785-8.994,2.551-9.668,7.219
				c-0.683,4.651,2.551,8.986,7.211,9.66c2.842,0.418,5.692,0.777,8.567,1.101c0.316,0.034,0.64,0.051,0.956,0.051
				c4.292,0,7.987-3.226,8.474-7.595C237.348,498.228,233.978,494.013,229.293,493.484z"/>
			<path d="M117.545,450.929c-2.193-1.553-4.352-3.149-6.477-4.762c-3.772-2.876-9.114-2.133-11.955,1.604
				c-2.859,3.755-2.142,9.114,1.604,11.964c2.295,1.749,4.617,3.456,6.972,5.12c1.493,1.058,3.217,1.57,4.924,1.57
				c2.671,0,5.316-1.254,6.972-3.61C122.306,458.967,121.393,453.642,117.545,450.929z"/>
			<path d="M189.777,485.7c-2.586-0.734-5.146-1.519-7.689-2.338c-4.48-1.442-9.284,0.998-10.752,5.478
				c-1.459,4.48,0.998,9.293,5.478,10.752c2.739,0.887,5.495,1.724,8.277,2.526c0.785,0.213,1.57,0.324,2.355,0.324
				c3.703,0,7.125-2.44,8.192-6.195C196.936,491.725,194.308,486.997,189.777,485.7z"/>
			<path d="M81.193,419.15c-3.217-3.447-8.627-3.635-12.058-0.41c-3.439,3.217-3.627,8.619-0.41,12.058
				c1.971,2.108,3.968,4.173,5.999,6.212c1.673,1.664,3.849,2.5,6.033,2.5c2.185,0,4.369-0.836,6.033-2.5
				c3.336-3.337,3.336-8.738,0-12.066C84.897,423.041,83.028,421.104,81.193,419.15z"/>
			<path d="M405.768,288.925c-0.538,2.483-1.161,4.941-1.835,7.381c-1.237,4.548,1.434,9.242,5.973,10.496
				c0.76,0.196,1.519,0.299,2.27,0.299c3.738,0,7.185-2.483,8.226-6.272c0.742-2.731,1.425-5.487,2.031-8.252
				c1.007-4.599-1.903-9.156-6.511-10.163C411.315,281.407,406.775,284.309,405.768,288.925z"/>
			<path d="M404.443,320.975c-4.198-2.15-9.353-0.461-11.469,3.746c-1.152,2.287-2.364,4.531-3.627,6.741
				c-2.33,4.105-0.887,9.31,3.2,11.639c1.34,0.759,2.79,1.118,4.215,1.118c2.97,0,5.854-1.553,7.424-4.318
				c1.391-2.449,2.731-4.941,4.002-7.458C410.322,328.246,408.641,323.1,404.443,320.975z"/>
			<path d="M391.335,166.725c-4.07,2.372-5.436,7.603-3.055,11.674c1.289,2.21,2.526,4.446,3.721,6.716
				c1.527,2.91,4.489,4.565,7.569,4.565c1.331,0,2.688-0.316,3.959-0.973c4.164-2.193,5.777-7.347,3.593-11.52
				c-1.314-2.492-2.688-4.958-4.113-7.407C400.645,165.735,395.431,164.353,391.335,166.725z"/>
			<path d="M365.185,136.15c-3.362,3.302-3.405,8.704-0.102,12.066c1.792,1.818,3.541,3.686,5.248,5.581
				c1.69,1.886,4.011,2.842,6.357,2.842c2.031,0,4.062-0.717,5.692-2.176c3.507-3.149,3.806-8.533,0.666-12.049
				c-1.886-2.099-3.814-4.147-5.794-6.161C373.948,132.882,368.555,132.839,365.185,136.15z"/>
			<path d="M305.484,92.716c-4.523-1.357-9.276,1.186-10.65,5.683c-1.365,4.506,1.178,9.276,5.683,10.65
				c2.432,0.742,4.847,1.544,7.228,2.398c0.956,0.35,1.937,0.512,2.893,0.512c3.499,0,6.776-2.159,8.03-5.632
				c1.596-4.437-0.691-9.327-5.129-10.931C310.886,94.44,308.198,93.544,305.484,92.716z"/>
			<path d="M353.502,126.433c2.645-3.9,1.613-9.207-2.287-11.853c-2.33-1.57-4.693-3.098-7.125-4.574
				c-4.019-2.458-9.267-1.169-11.725,2.859c-2.449,4.028-1.169,9.276,2.859,11.725c2.176,1.323,4.326,2.705,6.426,4.13
				c1.468,0.99,3.14,1.459,4.779,1.459C349.158,130.179,351.855,128.865,353.502,126.433z"/>
			<path d="M419.752,208.65c-1.306-4.531-6.025-7.117-10.564-5.837c-4.54,1.314-7.142,6.042-5.837,10.573
				c0.7,2.432,1.348,4.89,1.937,7.373c0.922,3.934,4.429,6.579,8.294,6.579c0.657,0,1.306-0.068,1.963-0.222
				c4.591-1.075,7.433-5.675,6.357-10.257C421.254,214.094,420.537,211.347,419.752,208.65z"/>
			<path d="M426.402,258.908l0.026-2.91c0-1.869-0.026-3.729-0.094-5.589c-0.154-4.719-4.241-8.661-8.806-8.243
				c-4.71,0.154-8.397,4.105-8.243,8.806c0.051,1.681,0.077,3.345,0.077,5.026l-0.026,2.594c-0.085,4.719,3.669,8.61,8.371,8.687
				h0.162C422.511,267.279,426.316,263.567,426.402,258.908z"/>
			<path d="M146.068,125.342c-3.601,3.029-4.07,8.414-1.024,12.023c1.681,2.005,4.096,3.038,6.537,3.038
				c1.929,0,3.891-0.666,5.487-2.014c1.946-1.638,3.934-3.226,5.956-4.753c3.755-2.85,4.497-8.201,1.647-11.964
				c-2.85-3.738-8.201-4.489-11.964-1.638C150.454,121.749,148.244,123.516,146.068,125.342z"/>
			<path d="M104.577,323.125c1.024,0,2.057-0.179,3.063-0.572c4.403-1.698,6.596-6.639,4.898-11.025
				c-0.922-2.389-1.784-4.796-2.594-7.228c-1.493-4.463-6.315-6.878-10.795-5.41c-4.471,1.493-6.886,6.315-5.41,10.795
				c0.896,2.679,1.86,5.342,2.867,7.97C97.921,321.051,101.155,323.125,104.577,323.125z"/>
			<path d="M156.402,373.061c-1.946-1.655-3.84-3.354-5.692-5.103c-3.43-3.217-8.823-3.063-12.066,0.367
				c-3.226,3.43-3.055,8.841,0.367,12.066c2.065,1.937,4.164,3.814,6.306,5.649c1.613,1.374,3.575,2.039,5.547,2.039
				c2.406,0,4.804-1.016,6.485-2.987C160.413,381.501,159.986,376.116,156.402,373.061z"/>
			<path d="M126.352,338.658c-2.551-3.968-7.817-5.129-11.793-2.594c-3.968,2.543-5.12,7.817-2.594,11.793
				c1.536,2.389,3.132,4.745,4.787,7.049c1.664,2.33,4.284,3.558,6.938,3.558c1.732,0,3.465-0.512,4.975-1.596
				c3.823-2.748,4.702-8.081,1.954-11.913C129.142,342.899,127.717,340.8,126.352,338.658z"/>
			<path d="M173.167,405.316c2.458,1.365,4.958,2.679,7.501,3.925c1.22,0.597,2.5,0.887,3.763,0.887
				c3.157,0,6.178-1.758,7.663-4.762c2.091-4.224,0.35-9.344-3.874-11.426c-2.295-1.135-4.54-2.304-6.767-3.541
				c-4.113-2.304-9.318-0.802-11.605,3.319C167.561,397.833,169.054,403.029,173.167,405.316z"/>
			<path d="M304.56,419.483c4.506-1.357,7.066-6.127,5.7-10.633c-1.357-4.514-6.101-7.074-10.633-5.7
				c-2.432,0.734-4.881,1.399-7.364,2.014c-4.582,1.143-7.364,5.768-6.229,10.342c0.964,3.883,4.454,6.477,8.277,6.477
				c0.683,0,1.374-0.085,2.065-0.247C299.124,421.053,301.863,420.303,304.56,419.483z"/>
			<path d="M255.76,426.667c2.355,0,4.71-0.051,7.04-0.154c4.71-0.188,8.371-4.164,8.175-8.875c-0.188-4.71-4.48-8.457-8.875-8.175
				c-2.099,0.085-4.215,0.137-6.178,0.137l-1.527-0.009c-4.719,0-8.533,3.814-8.533,8.533s3.814,8.533,8.533,8.533L255.76,426.667z"
				/>
			<path d="M220.677,423.042c0.58,0.128,1.178,0.179,1.749,0.179c3.959,0,7.501-2.765,8.346-6.784
				c0.964-4.608-1.997-9.139-6.613-10.095c-2.483-0.529-4.958-1.109-7.407-1.749c-4.506-1.178-9.225,1.519-10.428,6.076
				c-1.195,4.557,1.519,9.225,6.076,10.419C215.139,421.813,217.895,422.47,220.677,423.042z"/>
			<path d="M181.551,102.325c-4.233,2.057-5.999,7.168-3.942,11.409c1.476,3.029,4.514,4.796,7.68,4.796
				c1.254,0,2.526-0.273,3.729-0.853c2.287-1.109,4.591-2.167,6.938-3.157c4.343-1.835,6.374-6.844,4.54-11.187
				s-6.852-6.366-11.187-4.531C186.697,99.91,184.103,101.079,181.551,102.325z"/>
			<path d="M93.427,259.075c-4.702,0.333-8.243,4.42-7.902,9.114c0.205,2.833,0.469,5.649,0.819,8.457
				c0.521,4.318,4.207,7.501,8.456,7.501c0.341,0,0.691-0.017,1.041-0.068c4.685-0.572,8.013-4.83,7.433-9.506
				c-0.299-2.517-0.546-5.043-0.734-7.595C102.208,262.275,98.24,258.691,93.427,259.075z"/>
			<path d="M119.235,168.225c1.51,1.092,3.26,1.613,4.983,1.613c2.654,0,5.257-1.22,6.929-3.541
				c1.485-2.065,3.029-4.079,4.617-6.067c2.944-3.669,2.355-9.045-1.331-11.989c-3.686-2.953-9.045-2.347-11.989,1.323
				c-1.766,2.202-3.473,4.454-5.137,6.75C114.55,160.144,115.412,165.478,119.235,168.225z"/>
			<path d="M229.997,87.281c-2.816,0.427-5.589,0.922-8.346,1.485c-4.617,0.939-7.595,5.444-6.647,10.069
				c0.819,4.036,4.369,6.818,8.346,6.818c0.572,0,1.143-0.051,1.715-0.171c2.475-0.503,4.983-0.939,7.509-1.331
				c4.659-0.708,7.859-5.069,7.142-9.728C239.008,89.765,234.733,86.531,229.997,87.281z"/>
			<path d="M263.802,85.525c-4.727-0.316-8.713,3.422-8.917,8.132c-0.213,4.71,3.422,8.704,8.132,8.917
				c2.56,0.119,5.094,0.299,7.612,0.546c0.282,0.017,0.555,0.034,0.828,0.034c4.343,0,8.064-3.294,8.491-7.706
				c0.452-4.693-2.978-8.866-7.671-9.318C269.476,85.858,266.66,85.662,263.802,85.525z"/>
			<path d="M111.601,181.358c-4.267-1.963-9.344-0.06-11.298,4.233c-1.169,2.569-2.278,5.171-3.319,7.808
				c-1.724,4.386,0.435,9.344,4.821,11.068c1.024,0.401,2.082,0.589,3.123,0.589c3.396,0,6.613-2.048,7.936-5.402
				c0.93-2.364,1.92-4.693,2.97-6.997C117.788,188.372,115.893,183.312,111.601,181.358z"/>
			<path d="M93.843,243.9c0.367,0.043,0.734,0.068,1.092,0.068c4.233,0,7.91-3.14,8.457-7.45c0.324-2.543,0.708-5.06,1.152-7.561
				c0.828-4.642-2.27-9.071-6.912-9.89c-4.727-0.845-9.062,2.27-9.89,6.903c-0.486,2.773-0.922,5.572-1.28,8.38
				C85.865,239.027,89.167,243.302,93.843,243.9z"/>
		</g>
	</g>
</g>
</svg>